<svg width="1067" height="574" viewBox="0 0 1067 574" fill="none" xmlns="http://www.w3.org/2000/svg">
<path fill-rule="evenodd" clip-rule="evenodd" d="M0 10C0 7.03462 1.29073 4.37071 3.34103 2.53943L15.75 16L30.5 0L45.25 16L60 0H60.0005L74.7505 16L89.5002 0.000262605L104.5 16L119.5 0L134.25 16L149 0L163.75 16L178.5 0L193.25 16L208 0H208L223 16L238 0.000262605L252.75 16L267.5 0L282.25 16L297 0L311.75 16L326.5 0L341.5 16L356.5 0L371.25 16L386 0L400.75 16L415.5 0L430.25 16L445 0L460 16L475 0L489.75 16L504.5 0L519.25 16L534 0L548.75 16L563.5 0L578.25 16L593 0L607.75 16L622.5 0L637.5 16L652.5 0L667.25 16L682 0L696.75 16L711.5 0L726.25 16L741 0L756 16L771 0L785.75 16L800.5 0L815.25 16L830 0L844.75 16L859.5 0L874.5 16L889.5 0L904.25 16L919 0L933.75 16L948.5 0L963.25 16L978 0L993 16L1008 0L1022.75 16L1037.5 0L1052.25 16L1064.19 3.04904C1065.93 4.8484 1067 7.29916 1067 10V564C1067 566.701 1065.93 569.152 1064.19 570.951L1052.25 558L1037.5 574L1022.75 558L1008 574L993 558L978 574L963.25 558L948.5 574L933.75 558L919 574L904.25 558L889.5 574L874.5 558L859.5 574L844.75 558L830 574L815.25 558L800.5 574L785.75 558L771 574L756 558L741 574L726.25 558L711.5 574L696.75 558L682 574L667.25 558L652.5 574L637.5 558L622.5 574L607.75 558L593 574L578.25 558L563.5 574L548.75 558L534 574L519.25 558L504.5 574L489.75 558L475 574L460 558L445 574L430.25 558L415.5 574L400.75 558L386 574L371.25 558L356.5 574L341.5 558L326.5 574L311.75 558L297 574L282.25 558L267.5 574L252.75 558L238 574L223 558L208 574H208L193.25 558L178.5 574L163.75 558L149 574L134.25 558L119.5 574L104.5 558L89.5002 574L74.7505 558L60.0005 574H60L45.25 558L30.5 574L15.75 558L3.34103 571.461C1.29073 569.629 0 566.965 0 564V10Z" fill="white"/>
</svg>
